<?xml version="1.0" encoding="utf-8"?>
<!-- Generator: Adobe Illustrator 27.0.1, SVG Export Plug-In . SVG Version: 6.00 Build 0)  -->
<svg version="1.1" xmlns="http://www.w3.org/2000/svg" xmlns:xlink="http://www.w3.org/1999/xlink" x="0px" y="0px"
	 viewBox="0 0 500 500" style="enable-background:new 0 0 500 500;" xml:space="preserve">
<style type="text/css">
	.st0{fill:#432918;}
	.st1{fill:none;stroke:#1D1D1B;stroke-miterlimit:10;}
	.st2{fill:#462A1D;stroke:#1D1D1B;stroke-miterlimit:10;}
	.st3{fill:#F2E62B;}
	.st4{fill:#E41D13;}
	.st5{fill:#D3381C;}
	.st6{font-family:'MontegoBayRegular';}
	.st7{font-size:147.7382px;}
	.st8{letter-spacing:3.26;}
</style>
<g id="Camada_3">
</g>
<g id="Logo">
	<g>
		<g>
			<path class="st0" d="M462.73,210.22c3.22,0,3.22-5,0-5C459.51,205.22,459.51,210.22,462.73,210.22L462.73,210.22z"/>
		</g>
	</g>
	<g>
		<g>
			<path class="st0" d="M487.16,271.43c3.22,0,3.22-5,0-5C483.94,266.43,483.94,271.43,487.16,271.43L487.16,271.43z"/>
		</g>
	</g>
	<g>
		<g>
			<path class="st0" d="M485.08,271.62c3.22,0,3.22-5,0-5C481.86,266.62,481.86,271.62,485.08,271.62L485.08,271.62z"/>
		</g>
	</g>
	<g>
		<g>
			<path class="st0" d="M486.79,270.74c3.22,0,3.22-5,0-5C483.57,265.74,483.57,270.74,486.79,270.74L486.79,270.74z"/>
		</g>
	</g>
	<g>
		<g>
			<path class="st0" d="M487.41,269.91c3.22,0,3.22-5,0-5C484.19,264.91,484.19,269.91,487.41,269.91L487.41,269.91z"/>
		</g>
	</g>
	<g>
		<g>
			<path class="st0" d="M487.94,268.44c3.22,0,3.22-5,0-5C484.72,263.44,484.72,268.44,487.94,268.44L487.94,268.44z"/>
		</g>
	</g>
	<g>
		<g>
			<path class="st0" d="M463.47,210.31c3.22,0,3.22-5,0-5C460.26,205.31,460.25,210.31,463.47,210.31L463.47,210.31z"/>
		</g>
	</g>
	<g>
		<g>
			<path class="st0" d="M463.15,210.63c3.22,0,3.22-5,0-5C459.93,205.63,459.93,210.63,463.15,210.63L463.15,210.63z"/>
		</g>
	</g>
	<g>
		<g>
			<path class="st0" d="M466.38,210.14c-0.06,0.04-0.12,0.07-0.19,0.09c0.2-0.08,0.4-0.17,0.6-0.25c-0.1,0.03-0.2,0.05-0.31,0.07
				c0.22-0.03,0.44-0.06,0.66-0.09c-0.11,0.01-0.21,0-0.32,0c0.22,0.03,0.44,0.06,0.66,0.09c-0.18-0.03-0.35-0.08-0.53-0.14
				c0.2,0.08,0.4,0.17,0.6,0.25c-0.47-0.21-0.87-0.54-1.3-0.82c-0.45-0.3-0.91-0.58-1.38-0.84c-1.09-0.6-2.25-1.1-3.42-1.51
				c-0.59-0.21-1.4-0.05-1.93,0.25c-0.52,0.3-1.01,0.9-1.15,1.49c-0.32,1.4,0.42,2.61,1.75,3.08c0.39,0.14,0.77,0.28,1.15,0.44
				c-0.2-0.08-0.4-0.17-0.6-0.25c1.1,0.47,2.16,1.04,3.15,1.72c0.62,0.42,1.18,0.8,1.9,1.05c1.05,0.35,2.2,0.22,3.16-0.31
				c1.14-0.64,1.62-2.3,0.9-3.42C469.05,209.88,467.6,209.46,466.38,210.14L466.38,210.14z"/>
		</g>
	</g>
	<line class="st1" x1="482.58" y1="272.05" x2="490.17" y2="271.8"/>
	<path class="st2" d="M462.14,203.69c26.63,12.47,38.95,43.11,27.51,68.44"/>
	<g>
		<g>
			<path class="st1" d="M465.31,211.83"/>
		</g>
	</g>
	<g id="XMLID_00000106850963315054161330000008586192446426547126_">
		<g>
			<path class="st3" d="M482.6,272.35c0.36,5.97-1.3,8.97-3.04,9.64c-4.77,1.85-13.85-9.31-18.82-7.25
				c-2.26,0.93-1.44,4.42-4.52,5.48c-1.88,0.64-3.85-0.04-4.43-0.23c-4.03-1.38-4-5.03-6.14-5.11c-2.76-0.12-3.44,5.12-6.85,5.54
				c-3.6,0.43-5.26-5.22-10.23-5.17c-0.36,0.01-2.52,0.07-4.33,1.53c-2.9,2.35-1.75,6-3.65,6.7c-2.98,1.1-8.18-6.76-11.67-5.71
				c-2.83,0.85-1.26,6.95-5.15,8.03c-3.22,0.9-5.38-1.22-7.9,0.01c-2.25,1.1-1.89,3.44-3.08,3.71c-1.15,0.27-3.42-1.15-8.83-11.84
				l72.73-68.25l0.03,0.03c24.8,11.62,36.44,39.76,26,62.88L482.6,272.35z M479,245.91c-0.62-4.52-4.73-7.69-9.18-7.08
				c-4.46,0.61-7.56,4.77-6.94,9.29c0.62,4.52,4.72,7.69,9.18,7.08C476.51,254.59,479.62,250.42,479,245.91z M441.87,242.67
				c-0.39-2.87-2.99-4.87-5.82-4.48c-2.81,0.39-4.79,3.02-4.39,5.89c0.39,2.87,3.01,4.87,5.82,4.48
				C440.3,248.16,442.27,245.53,441.87,242.67z M422.19,268.19c-0.46-3.33-3.49-5.67-6.76-5.22c-3.28,0.45-5.57,3.51-5.11,6.85
				c0.46,3.32,3.49,5.66,6.77,5.21C420.36,274.57,422.65,271.51,422.19,268.19z"/>
			
				<ellipse transform="matrix(0.9907 -0.1359 0.1359 0.9907 -29.2094 66.3174)" class="st4" cx="470.94" cy="247.01" rx="8.13" ry="8.26"/>
			
				<ellipse transform="matrix(0.9907 -0.1359 0.1359 0.9907 -29.0307 61.6381)" class="st4" cx="436.77" cy="243.37" rx="5.15" ry="5.23"/>
			<path class="st5" d="M415.44,262.97c3.27-0.45,6.3,1.89,6.76,5.22c0.46,3.32-1.83,6.39-5.1,6.83c-3.28,0.45-6.31-1.88-6.77-5.21
				C409.87,266.48,412.15,263.42,415.44,262.97z"/>
		</g>
		<g>
			<polyline class="st1" points="463.09,203.43 456.69,209.43 383.97,277.68 383.47,278.15 			"/>
			<path class="st1" d="M383.89,277.53c0.03,0.04,0.05,0.1,0.08,0.15c5.41,10.69,7.68,12.1,8.83,11.84
				c1.19-0.27,0.83-2.61,3.08-3.71c2.52-1.23,4.68,0.89,7.9-0.01c3.89-1.08,2.32-7.18,5.15-8.03c3.49-1.05,8.69,6.82,11.67,5.71
				c1.89-0.7,0.75-4.35,3.65-6.7c1.81-1.47,3.97-1.52,4.33-1.53c4.97-0.05,6.63,5.6,10.23,5.17c3.41-0.42,4.09-5.66,6.85-5.54
				c2.14,0.08,2.12,3.73,6.14,5.11c0.58,0.19,2.55,0.87,4.43,0.23c3.08-1.06,2.26-4.55,4.52-5.48c4.97-2.06,14.05,9.1,18.82,7.25
				c1.74-0.68,3.4-3.67,3.04-9.64c0-0.1-0.02-0.2-0.02-0.3"/>
			<path class="st1" d="M456.72,209.46c24.8,11.62,36.44,39.76,26,62.88"/>
			
				<ellipse transform="matrix(0.9907 -0.1359 0.1359 0.9907 -29.2094 66.3174)" class="st1" cx="470.94" cy="247.01" rx="8.13" ry="8.26"/>
			<path class="st1" d="M422.19,268.19c0.46,3.32-1.83,6.39-5.1,6.83c-3.28,0.45-6.31-1.88-6.77-5.21c-0.46-3.33,1.83-6.4,5.11-6.85
				C418.71,262.52,421.74,264.85,422.19,268.19z"/>
			
				<ellipse transform="matrix(0.9907 -0.1359 0.1359 0.9907 -29.0307 61.6381)" class="st1" cx="436.77" cy="243.37" rx="5.15" ry="5.23"/>
		</g>
	</g>
</g>
<g id="pizaiollo">
	<text transform="matrix(0.9203 0 0 1 33.3736 235.7557)" class="st6 st7 st8">Pixzaiollo</text>
</g>
</svg>
